HIERARCHY
ROOT RootJoint
{
    OFFSET   0.000000   0.000000   0.000000
    CHANNELS 6 Xposition Yposition Zposition Xrotation Yrotation Zrotation
    JOINT pelvis_lowerback
    {
        OFFSET   0.000000   0.093605   0.000000
        CHANNELS 3 Xrotation Yrotation Zrotation
        JOINT lowerback_torso
        {
            OFFSET   0.000000   0.100000   0.000000
            CHANNELS 3 Xrotation Yrotation Zrotation
            JOINT torso_head
            {
                OFFSET   0.000000   0.282350   0.000000
                CHANNELS 3 Xrotation Yrotation Zrotation
                End Site
                {
                    OFFSET   0.000000   0.192650   0.000000
                }
            }
            JOINT rTorso_Clavicle
            {
                OFFSET  -0.001000   0.157500   0.000000
                CHANNELS 3 Xrotation Yrotation Zrotation
                JOINT rShoulder
                {
                    OFFSET  -0.117647   0.000000   0.000000
                    CHANNELS 3 Xrotation Yrotation Zrotation
                    JOINT rElbow
                    {
                        OFFSET  -0.245000   0.000000   0.000000
                        CHANNELS 3 Xrotation Yrotation Zrotation
                        JOINT rWrist
                        {
                            OFFSET  -0.240000   0.000000   0.000000
                            CHANNELS 3 Xrotation Yrotation Zrotation
                            End Site
                            {
                                OFFSET  -0.116353  -0.002500   0.000000
                            }
                        }
                    }
                }
            }
            JOINT lTorso_Clavicle
            {
                OFFSET   0.001000   0.157500   0.000000
                CHANNELS 3 Xrotation Yrotation Zrotation
                JOINT lShoulder
                {
                    OFFSET   0.117647   0.000000   0.000000
                    CHANNELS 3 Xrotation Yrotation Zrotation
                    JOINT lElbow
                    {
                        OFFSET   0.245000   0.000000   0.000000
                        CHANNELS 3 Xrotation Yrotation Zrotation
                        JOINT lWrist
                        {
                            OFFSET   0.240000   0.000000   0.000000
                            CHANNELS 3 Xrotation Yrotation Zrotation
                            End Site
                            {
                                OFFSET   0.116353  -0.002500   0.000000
                            }
                        }
                    }
                }
            }
        }
    }
    JOINT rHip
    {
        OFFSET  -0.100000  -0.051395   0.000000
        CHANNELS 3 Xrotation Yrotation Zrotation
        JOINT rKnee
        {
            OFFSET   0.000000  -0.410000   0.000000
            CHANNELS 3 Xrotation Yrotation Zrotation
            JOINT rAnkle
            {
                OFFSET   0.000000  -0.390000   0.000000
                CHANNELS 3 Xrotation Yrotation Zrotation
                JOINT rToeJoint
                {
                    OFFSET   0.000000  -0.050000   0.130000
                    CHANNELS 3 Xrotation Yrotation Zrotation
                    End Site
                    {
                        OFFSET  -0.010000   0.002000   0.060000
                    }
                }
            }
        }
    }
    JOINT lHip
    {
        OFFSET   0.100000  -0.051395   0.000000
        CHANNELS 3 Xrotation Yrotation Zrotation
        JOINT lKnee
        {
            OFFSET   0.000000  -0.410000   0.000000
            CHANNELS 3 Xrotation Yrotation Zrotation
            JOINT lAnkle
            {
                OFFSET   0.000000  -0.390000   0.000000
                CHANNELS 3 Xrotation Yrotation Zrotation
                JOINT lToeJoint
                {
                    OFFSET   0.000000  -0.050000   0.130000
                    CHANNELS 3 Xrotation Yrotation Zrotation
                    End Site
                    {
                        OFFSET   0.010000   0.002000   0.060000
                    }
                }
            }
        }
    }
}
MOTION
Frames: 8
Frame Time:   0.008333
 -2.662631   0.909902   4.570594 -12.765416 -61.044769  -2.899390   2.074981   4.330400  -2.584236  -0.337580   3.383485  -0.685720   1.081587  -1.612918   3.895426  -4.585795   3.897257  -5.718888 -16.153156  23.466839  46.225943 -179.979560  64.320447 179.966955   1.176646   8.911579 -14.373595   4.662287   7.517349  -1.049342  11.232392   1.922953 -56.064735   0.009772 -44.022769   0.033066  -1.173259  -2.822600  10.516947   8.065205   7.880339 -16.699427  30.436441   0.000471   0.001517 -11.025263   3.615033   2.360811 -29.426233   0.001184   0.049147   2.485790  -4.298653   2.744003  13.240275  -0.000342   0.001032   2.426878   6.551229   0.523044 -16.746612  -0.007607   0.008578
 -2.663137   0.912498   4.572822 -12.730199 -61.517643  -2.950659   2.051355   4.265563  -2.704886  -0.251828   3.417930  -0.658367   1.029350  -1.570946   3.837130  -4.258494   3.922904  -5.653131 -14.948697  23.875573  46.568774 -179.973524  64.976613 179.957051   1.220247   9.042201 -14.104202   4.776906   7.455752  -0.892300  11.335463   2.005562 -56.007384   0.013287 -45.537274   0.038339  -1.307345  -2.693768  10.529990   7.548157   7.757105 -16.772528  30.780440  -0.000301  -0.000863  -8.996831   3.656244   2.833158 -32.519696   0.004018   0.067082   2.451788  -4.055180   2.679344  13.361036  -0.000197   0.000559   3.279720   6.621796   0.281324 -17.088918  -0.006854   0.007197
 -2.663702   0.915020   4.575147 -12.804961 -61.906577  -3.093896   2.044511   4.184688  -2.827894  -0.134057   3.434040  -0.634002   0.977817  -1.531817   3.767339  -3.879232   3.930272  -5.540337 -13.755977  24.248137  46.899600 -179.968789  65.632631 179.948920   1.203645   8.944973 -13.724648   4.870987   7.395504  -0.742917  11.418040   2.068738 -55.963515   0.016389 -46.983119   0.041639  -1.397960  -2.779535  10.526841   7.061891   7.639032 -16.836406  31.226870  -0.000995  -0.003128  -7.050994   3.723257   3.266074 -35.061797   0.004082   0.074748   2.449455  -3.835004   2.607979  13.522902  -0.000033   0.000169   4.084770   6.671602   0.052676 -17.338223  -0.006027   0.005918
 -2.664321   0.917436   4.577588 -12.925122 -62.229551  -3.276662   2.036128   4.095379  -2.944555  -0.009917   3.434155  -0.608871   0.929661  -1.495026   3.697571  -3.493504   3.924329  -5.410453 -12.613314  24.594155  47.211413 -179.965770  66.256561 179.943666   1.162230   8.751189 -13.301040   4.953537   7.335099  -0.606925  11.489918   2.121984 -55.926886   0.018779 -48.338237   0.043173  -1.473622  -2.924093  10.509517   6.617116   7.534728 -16.897276  31.693820  -0.001440  -0.004768  -5.198707   3.810533   3.662787 -37.126974   0.003173   0.075279   2.464741  -3.631663   2.532558  13.696421   0.000130  -0.000096   4.840616   6.711690  -0.161028 -17.546619  -0.005262   0.004803
 -2.664985   0.919723   4.580133 -13.059589 -62.501327  -3.472542   2.021590   4.003165  -3.053403   0.108071   3.424111  -0.583448   0.884306  -1.460563   3.631216  -3.119770   3.910815  -5.279190 -11.533449  24.918281  47.500828 -179.964182  66.842462 179.940981   1.114681   8.529509 -12.871670   5.028648   7.276356  -0.482493  11.555078   2.168936 -55.895348   0.020410 -49.604747   0.043297  -1.543153  -3.080158  10.482692   6.208645   7.443349 -16.957842  32.155544  -0.001662  -0.005819  -3.440737   3.912039   4.025759 -38.799872   0.002085   0.071559   2.490038  -3.443045   2.454998  13.870108   0.000280  -0.000258   5.546889   6.744819  -0.360552 -17.751838  -0.004631   0.003864
 -2.665686   0.921864   4.582769 -13.193959 -62.731779  -3.668913   2.000122   3.911731  -3.155116   0.215409   3.408308  -0.558915   0.841360  -1.428331   3.569130  -2.765463   3.893593  -5.153432 -10.519620  25.223193  47.767406 -179.963685  67.389984 179.940318   1.068115   8.307388 -12.452209   5.098008   7.220216  -0.367629  11.615112   2.211358 -55.867353   0.021344 -50.787419   0.042348  -1.609122  -3.234515  10.450664   5.832062   7.363258 -17.019083  32.602371  -0.001715  -0.006401  -1.775543   4.022772   4.357289 -40.151432   0.001131   0.065545   2.522009  -3.268406   2.376619  14.039242   0.000408  -0.000346   6.204266   6.771874  -0.547038 -17.981488  -0.004162   0.003081
 -2.666418   0.923852   4.585478 -13.320734 -62.927294  -3.859063   1.972135   3.823326  -3.250917   0.310951   3.389620  -0.536303   0.800611  -1.398203   3.511348  -2.433107   3.875025  -5.035781  -9.570990  25.510641  48.012157 -179.963985  67.900582 179.941145   1.024996   8.095284 -12.048428   5.162455   7.167060  -0.260983  11.670797   2.250215 -55.841921   0.021687 -51.891403   0.040620  -1.672379  -3.383191  10.416361   5.484158   7.293012 -17.081125  33.030435  -0.001648  -0.006630  -0.200532   4.139105   4.659717 -41.239917   0.000405   0.058496   2.558822  -3.107131   2.298349  14.201922   0.000512  -0.000384   6.814044   6.793400  -0.721578 -18.255382  -0.003860   0.002422
 -2.666657   0.925290   4.588138 -13.558632 -63.202413  -4.106742   2.081577   3.704100  -3.380897   0.397589   3.461519  -0.563005   0.709695  -1.350170   3.476751  -2.129477   3.884214  -4.947529  -8.541198  25.684100  48.279801 -179.959692  68.693530 179.934640   1.107001   8.188341 -11.692650   5.280775   7.174803  -0.208487  11.730921   2.326569 -55.756041   0.026047 -53.711958   0.044798  -1.765856  -3.246778  10.408538   4.556568   7.076296 -17.185538  34.462811  -0.004341  -0.015001   1.129192   4.204438   5.038776 -40.935725   0.000445   0.043741   2.486209  -3.045664   1.995758  14.914457   0.001977  -0.002106   5.629700   6.702902  -0.879825 -16.978921   0.003171  -0.000822
